<svg id="图层_1" data-name="图层 1" xmlns="http://www.w3.org/2000/svg" xmlns:xlink="http://www.w3.org/1999/xlink" viewBox="0 0 612.2835 824.88"><defs><clipPath id="clip-path"><rect x="251.3712" y="771.3228" width="310.479" height="14.411" style="fill:none"/></clipPath></defs><title>底图切图</title><rect y="0.0595" width="612.2617" height="824.881" style="fill:#fff"/><rect x="584.7657" y="0.0595" width="27.496" height="824.881" style="fill:#327e65"/><rect x="541.8372" y="773.3678" width="20.012" height="9.977" style="fill:#327e65"/><g style="clip-path:url(#clip-path)"><path d="M527.5082,773.6928a5.7392,5.7392,0,1,1-1.757,7.924,5.7387,5.7387,0,0,1,1.757-7.924" style="fill:#327e65"/><path d="M530.5918,778.5332a.41.41,0,0,1-.566-.125l-3.524-5.532a.41.41,0,1,1,.691-.441l3.525,5.532a.4107.4107,0,0,1-.126.566" style="fill:#fff"/><path d="M512.7272,778.3847a5.7395,5.7395,0,1,1,5.739,5.739,5.7391,5.7391,0,0,1-5.739-5.739" style="fill:#327e65"/><path d="M518.4665,778.3847a.4106.4106,0,0,1-.41.41h-6.559a.41.41,0,0,1,0-.82h6.559a.4106.4106,0,0,1,.41.41" style="fill:#fff"/><path d="M491.8253,771.3225s0,7.028,6.548,7.028v.006a6.5722,6.5722,0,0,0-6.548,7.027s0-7.027-6.548-7.027v-.006a6.5725,6.5725,0,0,0,6.548-7.028" style="fill:#327e65"/><path d="M507.3943,772.5678a2.807,2.807,0,0,1,0,5.614h-2.807v-2.807a2.8073,2.8073,0,0,1,2.807-2.807" style="fill:#327e65"/><path d="M501.4149,784.1386a2.807,2.807,0,0,1,0-5.614h2.807v2.807a2.8073,2.8073,0,0,1-2.807,2.807" style="fill:#327e65"/><path d="M501.4149,772.5678a2.807,2.807,0,0,0,0,5.614h2.807v-2.807a2.8073,2.8073,0,0,0-2.807-2.807" style="fill:#327e65"/><path d="M507.3943,784.1386a2.807,2.807,0,0,0,0-5.614h-2.807v2.807a2.8073,2.8073,0,0,0,2.807,2.807" style="fill:#327e65"/><path d="M469.6342,782.8806a4.49,4.49,0,1,1,4.489-4.489,4.4893,4.4893,0,0,1-4.489,4.489" style="fill:#327e65"/><path d="M469.6342,773.1683a.549.549,0,1,1,.549-.549.5493.5493,0,0,1-.549.549" style="fill:#327e65"/><path d="M469.6342,784.8046a.549.549,0,1,1,.549-.549.5493.5493,0,0,1-.549.549" style="fill:#327e65"/><path d="M464.365,778.4375a.549.549,0,1,1-.549-.549.5493.5493,0,0,1,.549.549" style="fill:#327e65"/><path d="M476.0013,778.4375a.549.549,0,1,1-.549-.549.5493.5493,0,0,1,.549.549" style="fill:#327e65"/><path d="M473.36,774.7116a.5487.5487,0,1,1,.776,0,.5492.5492,0,0,1-.776,0" style="fill:#327e65"/><path d="M465.1319,782.94a.5487.5487,0,1,1,.776,0,.5492.5492,0,0,1-.776,0" style="fill:#327e65"/><path d="M465.9083,774.7116a.5487.5487,0,1,1,0-.776.5492.5492,0,0,1,0,.776" style="fill:#327e65"/><path d="M474.1364,782.94a.5487.5487,0,1,1,0-.776.5492.5492,0,0,1,0,.776" style="fill:#327e65"/><path d="M467.6817,773.5434a.5491.5491,0,1,1,.306-.713.5489.5489,0,0,1-.306.713" style="fill:#327e65"/><path d="M471.9936,784.3513a.5491.5491,0,1,1,.306-.713.5489.5489,0,0,1-.306.713" style="fill:#327e65"/><path d="M464.74,780.39a.5491.5491,0,1,1-.713-.306.5489.5489,0,0,1,.713.306" style="fill:#327e65"/><path d="M475.548,776.0781a.5491.5491,0,1,1-.713-.306.5489.5489,0,0,1,.713.306" style="fill:#327e65"/><path d="M471.7142,773.5962a.549.549,0,1,1,.721-.288.55.55,0,0,1-.721.288" style="fill:#327e65"/><path d="M467.1208,784.2875a.549.549,0,1,1,.721-.288.55.55,0,0,1-.721.288" style="fill:#327e65"/><path d="M464.7929,776.3575a.549.549,0,1,1-.288-.721.55.55,0,0,1,.288.721" style="fill:#327e65"/><path d="M475.4842,780.9508a.549.549,0,1,1-.288-.721.55.55,0,0,1,.288.721" style="fill:#327e65"/><path d="M481.3025,772.4928a2.3878,2.3878,0,0,1,2.388,2.388v6.849a2.388,2.388,0,1,1-4.776,0v-6.849a2.3878,2.3878,0,0,1,2.388-2.388" style="fill:#327e65"/></g></svg>