<?xml version="1.0" encoding="UTF-8"?>
<svg id="_图层_2" data-name="图层 2" xmlns="http://www.w3.org/2000/svg" viewBox="0 0 87.9 60.4">
  <defs>
    <style>
      .cls-1, .cls-2 {
        fill: #47a637;
      }

      .cls-2 {
        fill-rule: evenodd;
      }
    </style>
  </defs>
  <g id="_图层_1-2" data-name="图层 1">
    <g>
      <polygon class="cls-1" points="60.23 44.28 60.23 6.33 87.9 6.33 60.23 44.28"/>
      <g>
        <path class="cls-2" d="M15.57,28.82c.26-.16,.4-.45,.4-.86,0-.45-.17-.75-.52-.9-.3-.1-.68-.15-1.15-.15h-2.12v2.15h2.37c.42,0,.77-.08,1.03-.24Z"/>
        <polygon class="cls-2" points="12.85 17.15 15.34 17.15 14.11 13.32 12.85 17.15"/>
        <path class="cls-2" d="M15.54,30.83c-.23-.11-.55-.16-.97-.17h-2.4v2.6h2.36c.42,0,.75-.06,.99-.17,.43-.21,.64-.62,.64-1.22,0-.51-.21-.85-.62-1.04Z"/>
        <path class="cls-2" d="M57.08,0H3.32C1.49,0,0,1.49,0,3.32V57.08c0,1.83,1.49,3.32,3.32,3.32H57.08c1.83,0,3.32-1.49,3.32-3.32V3.32c0-1.83-1.49-3.32-3.32-3.32ZM25.12,15.07h20.46c.81,0,1.47,.66,1.47,1.47s-.66,1.47-1.47,1.47H25.12c-.81,0-1.47-.66-1.47-1.47s.66-1.47,1.47-1.47Zm-12.6,31.67c.44,.54,1,.82,1.68,.82s1.23-.23,1.6-.7c.2-.25,.37-.63,.5-1.13h2.02c-.17,1.06-.62,1.92-1.34,2.59-.72,.66-1.63,1-2.75,1-1.38,0-2.47-.45-3.27-1.35-.79-.9-1.19-2.14-1.19-3.71,0-1.7,.45-3.01,1.35-3.93,.78-.8,1.78-1.2,2.99-1.2,1.62,0,2.81,.54,3.55,1.61,.41,.6,.64,1.21,.67,1.82h-2.03c-.13-.47-.3-.82-.5-1.06-.36-.42-.9-.63-1.61-.63s-1.3,.3-1.72,.89c-.42,.6-.63,1.44-.63,2.53s.22,1.91,.66,2.45Zm5.32-16.15c.25,.39,.38,.87,.38,1.43s-.14,1.09-.43,1.55c-.18,.3-.41,.56-.69,.77-.31,.24-.68,.4-1.1,.49-.42,.09-.88,.13-1.38,.13h-4.39v-9.74h4.7c1.19,.02,2.03,.36,2.52,1.04,.3,.41,.45,.91,.45,1.49s-.15,1.07-.45,1.43c-.17,.2-.42,.39-.74,.55,.5,.18,.87,.47,1.12,.86Zm-1.31-9.76l-.64-2h-3.59l-.66,2h-2.13l3.48-9.74h2.3l3.44,9.74h-2.21Zm25.46,25.45H25.12c-.81,0-1.47-.66-1.47-1.47s.66-1.47,1.47-1.47h16.87c.81,0,1.47,.66,1.47,1.47s-.66,1.47-1.47,1.47Zm8.67-14.13H25.12c-.81,0-1.47-.66-1.47-1.47s.66-1.47,1.47-1.47h25.54c.81,0,1.47,.66,1.47,1.47s-.66,1.47-1.47,1.47Z"/>
      </g>
    </g>
  </g>
</svg>